<svg id="Lager_1" data-name="Lager 1" xmlns="http://www.w3.org/2000/svg" viewBox="0 0 162.19 29.57"><defs><style>.cls-1{fill:#fff;}</style></defs><polygon class="cls-1" points="122.19 2.68 123.02 2.68 123.8 2.7 124.5 2.73 125.15 2.79 125.45 2.81 125.73 2.86 126.02 2.92 126.28 2.97 126.52 3.04 126.77 3.12 126.97 3.21 127.19 3.3 127.38 3.42 127.57 3.54 127.73 3.68 127.88 3.81 128.02 3.98 128.15 4.16 128.28 4.34 128.37 4.56 128.46 4.79 128.55 5.03 128.61 5.28 128.66 5.55 128.7 5.84 128.73 6.16 128.74 6.49 128.76 6.84 132.07 6.84 132.07 0 108.38 0 108.38 2.68 110.59 2.68 110.74 2.68 110.91 2.7 111.04 2.73 111.18 2.76 111.3 2.8 111.42 2.85 111.51 2.91 111.62 2.97 111.69 3.04 111.77 3.12 111.83 3.21 111.87 3.3 111.92 3.41 111.95 3.51 111.97 3.63 111.98 3.75 111.98 14.09 111.97 14.22 111.95 14.33 111.92 14.43 111.87 14.54 111.83 14.64 111.77 14.72 111.69 14.81 111.62 14.89 111.51 14.95 111.42 15.01 111.3 15.06 111.18 15.1 111.04 15.13 110.91 15.15 110.74 15.16 110.59 15.16 108.41 15.16 108.41 17.84 132.07 17.84 132.07 10.55 128.76 10.55 128.74 10.94 128.73 11.32 128.7 11.67 128.67 12 128.61 12.3 128.55 12.59 128.47 12.85 128.38 13.1 128.29 13.33 128.19 13.54 128.06 13.74 127.93 13.92 127.78 14.07 127.62 14.22 127.46 14.36 127.29 14.48 127.1 14.59 126.9 14.69 126.7 14.76 126.48 14.84 126.25 14.92 126.01 14.97 125.75 15.01 125.49 15.06 124.93 15.12 124.34 15.15 123.71 15.16 123.02 15.16 118.26 15.16 118.26 10.04 120.81 10.04 121.05 10.05 121.26 10.08 121.45 10.14 121.63 10.21 121.78 10.32 121.94 10.43 122.08 10.56 122.17 10.7 122.28 10.85 122.36 11.02 122.44 11.18 122.49 11.37 122.55 11.54 122.57 11.74 122.59 11.93 122.59 12.11 122.59 12.76 125.55 12.76 125.55 4.63 122.59 4.63 122.59 5.22 122.59 5.53 122.56 5.79 122.51 6.04 122.44 6.26 122.36 6.46 122.24 6.63 122.17 6.72 122.12 6.78 122.04 6.86 121.95 6.92 121.78 7.04 121.57 7.13 121.34 7.21 121.09 7.27 120.81 7.31 120.48 7.34 120.15 7.35 119.78 7.35 118.26 7.35 118.26 2.68 122.19 2.68"/><path class="cls-1" d="M97.6,26.55l.55-.09.53-.11.5-.13.24-.08.23-.08.22-.08.23-.1.2-.1.21-.11.18-.1.2-.12.16-.12.17-.14.15-.14.15-.15.14-.15.12-.15.12-.17.11-.18.09-.18.07-.18.08-.2.06-.21,0-.21,0-.22,0-.22v-.5l0-.26,0-.26-.06-.24-.08-.23-.1-.22-.11-.21-.12-.22-.13-.19-.17-.2-.17-.18-.19-.17-.2-.16-.21-.17-.24-.15-.25-.14-.27-.14-.27-.12L99.48,19l-.3-.1-.34-.09-.33-.09-.35-.08-.35-.07-.37-.08-.4-.05-.39,0-.41-.05-.42,0h-.44l-.45,0H78.44v2.68h2.22l.14,0,.14,0,.12.05.12,0,.11.06.09.06.07.08.08.07.06.1.06.09,0,.1,0,.1v.13l0,.12V32.31l0,.14v.1l0,.11,0,.11-.06.1-.06.08-.08.09-.07.07-.09.07-.11.06-.12,0-.12,0-.14,0-.14,0H78.47v2.67H91.93V33.39H89.06l-.14,0-.14,0-.13,0-.11,0-.1-.06-.1-.07L88.26,33,88.19,33l-.07-.08-.05-.1,0-.11,0-.11,0-.1v-4.3h3.78l.47,0,.39,0,.37,0,.3.06.26.06.12,0,.11.05.09,0,.09.05.09.05.06.07.08.07,0,.07.06.08,0,.09,0,.07,0,.11,0,.21,0,.23V32l0,.29,0,.25,0,.26.06.26.06.23.09.22.09.21.11.21.12.2.12.18.13.18.16.17.16.16.17.15.18.13.2.12.19.12.22.11.22.11.23.08.22.09.26.08.25.06.27.06.27.06.27,0L99,36h.29l.3,0h.32l.3,0,.43,0H101l.38,0,.36,0,.33-.06.32-.06.3-.06.28-.09.25-.09.26-.1.23-.1.21-.12.2-.12.18-.14.16-.15.15-.15.14-.15.12-.17.12-.18.09-.17.1-.2.08-.19.07-.2.06-.19,0-.21,0-.22,0-.23,0-.22,0-.47V30.07h-2.37v1.56l0,.32v.31l0,.13,0,.13,0,.14,0,.12-.05.1-.08.11-.07.1-.09.07-.11.06-.12.05-.15,0H102l-.15,0h-.14l-.11,0-.09-.05-.09,0-.06,0-.06-.06,0-.06,0-.08,0-.07V30.09l0-.2v-.2l0-.18,0-.18,0-.17,0-.15-.05-.14-.07-.16-.06-.13-.09-.14-.09-.12-.09-.12-.11-.12-.11-.11-.12-.11-.13-.09-.29-.18-.3-.16-.35-.16-.37-.13-.4-.12L98,26.9l-.47-.11L97,26.68v-.05Zm-.91-3.5v.38l0,.17,0,.17,0,.16,0,.14-.06.13,0,.14-.08.12-.07.11-.08.1-.09.09-.09.09-.11.08-.1.08-.12,0-.14.07-.14.06-.13,0-.15.05-.34.07-.34,0-.4.05H88V20.91h5.58L94,21l.44,0,.39.06.35.07.32.09.15.06.14.06.12.08.1.08.11.09.11.07.09.11.08.11,0,.12.06.12,0,.12.05.15,0,.15,0,.15v.36Z" transform="translate(-25.41 -18.23)"/><path class="cls-1" d="M42.8,26.52l.51-.12.48-.15.49-.17L44.5,26l.22-.1.21-.09.21-.11.2-.12.19-.11.19-.12.16-.13.17-.14.17-.14.15-.13.13-.16.14-.15.12-.16.11-.17L47,24l.09-.18.09-.19.06-.19.06-.2,0-.2,0-.21,0-.21v-.45l0-.23,0-.22,0-.2-.08-.2-.07-.21-.1-.2-.1-.2-.13-.18-.13-.18-.15-.16L46.32,20l-.18-.15-.2-.16-.21-.14-.23-.15-.24-.14L45,19.15,44.73,19l-.28-.12-.3-.09-.32-.11-.34-.09-.35-.07-.36-.08-.38-.06L42,18.36l-.41,0-.42-.05h-.44l-.47,0H25.41v2.68h2.34l.29,0,.12,0,.1,0,.11,0,.09,0,.09.05.08,0,.06.06,0,.08.05.09,0,.09v11.1l0,.11-.05.11,0,.1-.06.08-.08.09-.09.07-.09.07-.11.06-.1,0-.12,0-.14,0-.15,0H25.44v2.67H40.71l.56,0,.54,0,.52-.05.5,0,.47-.06.45-.08.42-.07.4-.09.39-.11.36-.11.34-.12L46,35.1l.31-.14.27-.15.27-.15.23-.17.22-.18.2-.2.18-.19.17-.22.15-.22.12-.23L48.2,33l.09-.25.07-.26.06-.29,0-.28,0-.31V31l0-.27,0-.27-.06-.26-.08-.24-.09-.23-.1-.21-.14-.2-.14-.2-.15-.17-.15-.17-.18-.17-.18-.15-.2-.15-.21-.14L46.52,28l-.23-.12-.24-.11-.24-.1-.24-.11-.52-.18-.55-.16L44,27.09l-.56-.15-.57-.14-.58-.12v-.05Zm-7.75-5.61H38.8l.4,0,.36.06.33.06.32.07.29.11.13.06.12.06.12.07.11.08.11.09.09.09.09.11.07.1.08.11.06.14.05.12,0,.15,0,.15v.32l0,.18,0,.18v.33l0,.15,0,.14-.05.14-.06.12-.08.12-.07.1-.09.11-.09.09-.11.09-.11.08-.12.08-.12.06-.13.05-.29.11-.32.09-.33.06-.36.05-.4.05h-.41l-.42,0H35.05Zm7.25,8.71.07.13.06.17,0,.15,0,.19,0,.18,0,.2v.42l0,.19,0,.2,0,.17,0,.17-.06.15-.07.15-.1.13-.09.12-.1.12-.11.11-.12.1-.14.1-.13.07-.15.07-.15.08-.16.07-.18,0-.16.06-.18.05-.38.06-.41.06-.43,0-.43,0H35.05v-5h3.83l.43,0,.43,0,.41,0,.38.06.34.1.34.1.15,0,.15.08.13.08.14.09.12.09.11.11.1.1.09.12Z" transform="translate(-25.41 -18.23)"/><polygon class="cls-1" points="160.91 15.16 160.59 15.12 160.42 15.1 160.26 15.06 160.1 15.01 159.93 14.97 159.75 14.9 159.58 14.83 159.43 14.76 159.27 14.66 159.1 14.56 158.95 14.44 158.79 14.31 158.66 14.18 152.49 8.1 157.41 3.81 157.59 3.65 157.76 3.49 157.94 3.36 158.11 3.25 158.29 3.15 158.47 3.04 158.63 2.97 158.79 2.91 158.95 2.85 159.11 2.8 159.28 2.76 159.44 2.73 159.78 2.7 160.11 2.68 161.11 2.68 161.11 0 150.88 0 150.88 2.68 152.2 2.68 152.35 2.68 152.5 2.7 152.62 2.73 152.74 2.76 152.85 2.8 152.92 2.88 152.95 2.91 152.97 2.95 152.98 3 152.98 3.06 152.98 3.15 152.97 3.24 152.94 3.33 152.91 3.42 152.85 3.49 152.79 3.59 152.71 3.68 152.64 3.75 149.72 6.25 147.15 3.75 147.06 3.67 147 3.57 146.93 3.49 146.89 3.41 146.84 3.31 146.81 3.24 146.79 3.15 146.79 3.06 146.79 3 146.81 2.95 146.83 2.91 146.86 2.88 146.93 2.8 147.04 2.76 147.16 2.73 147.28 2.7 147.43 2.68 147.57 2.68 148.96 2.68 148.96 0 136.36 0 136.36 2.68 136.77 2.68 137.19 2.7 137.4 2.71 137.6 2.73 137.81 2.76 138.01 2.8 138.22 2.85 138.42 2.91 138.59 2.98 138.79 3.06 138.98 3.17 139.16 3.28 139.32 3.44 139.49 3.59 145.3 9.37 140.34 13.7 140.05 13.95 139.78 14.16 139.52 14.36 139.25 14.53 139 14.68 138.75 14.8 138.49 14.89 138.25 14.98 138 15.04 137.72 15.09 137.44 15.12 137.16 15.15 136.54 15.16 135.86 15.16 135.86 17.84 146.83 17.84 146.83 15.16 145.12 15.16 144.94 15.16 144.77 15.16 144.62 15.13 144.5 15.1 144.41 15.06 144.33 14.99 144.3 14.97 144.27 14.92 144.27 14.88 144.26 14.81 144.27 14.74 144.29 14.64 144.33 14.56 144.37 14.45 144.45 14.34 144.54 14.23 144.67 14.09 144.8 13.95 148.04 11.17 150.99 13.95 151.13 14.1 151.24 14.24 151.34 14.34 151.41 14.47 151.46 14.56 151.51 14.64 151.52 14.74 151.53 14.81 151.52 14.88 151.52 14.92 151.49 14.97 151.47 14.99 151.4 15.06 151.29 15.1 151.17 15.13 151.02 15.16 150.85 15.16 150.67 15.16 148.96 15.16 148.96 17.84 162.19 17.84 162.19 15.16 161.22 15.16 160.91 15.16"/><polygon class="cls-1" points="39.58 2.68 40.4 2.68 41.16 2.7 41.84 2.73 42.44 2.79 42.73 2.81 43 2.86 43.26 2.92 43.5 2.97 43.73 3.04 43.94 3.12 44.13 3.21 44.32 3.3 44.48 3.42 44.63 3.54 44.79 3.68 44.92 3.81 45.03 3.98 45.15 4.16 45.24 4.34 45.33 4.56 45.39 4.79 45.47 5.03 45.51 5.28 45.56 5.55 45.59 5.84 45.6 6.16 45.62 6.49 45.63 6.84 48.95 6.84 48.95 0 25.85 0 25.85 2.68 28.06 2.68 28.38 2.68 28.65 2.71 28.79 2.73 28.89 2.74 29 2.77 29.09 2.81 29.18 2.86 29.24 2.91 29.32 2.97 29.36 3.04 29.41 3.13 29.44 3.22 29.45 3.33 29.45 3.45 29.45 14.09 29.45 14.22 29.44 14.33 29.41 14.43 29.36 14.54 29.32 14.64 29.24 14.72 29.18 14.81 29.09 14.89 29 14.95 28.89 15.01 28.79 15.06 28.65 15.1 28.53 15.13 28.38 15.15 28.23 15.16 28.06 15.16 25.9 15.16 25.9 17.84 48.95 17.84 48.95 10.55 45.63 10.55 45.62 10.94 45.6 11.32 45.59 11.67 45.56 12 45.51 12.3 45.47 12.59 45.41 12.85 45.33 13.1 45.26 13.33 45.16 13.54 45.07 13.74 44.95 13.92 44.84 14.07 44.71 14.22 44.58 14.36 44.42 14.48 44.26 14.59 44.08 14.69 43.89 14.76 43.7 14.84 43.48 14.92 43.27 14.97 43.03 15.01 42.79 15.06 42.27 15.12 41.7 15.15 41.08 15.16 40.4 15.16 35.65 15.16 35.65 10.04 38.19 10.04 38.42 10.05 38.63 10.08 38.82 10.14 39.01 10.21 39.17 10.32 39.32 10.43 39.44 10.56 39.57 10.7 39.66 10.85 39.75 11.02 39.82 11.18 39.87 11.37 39.91 11.54 39.95 11.74 39.96 11.93 39.97 12.11 39.97 12.76 42.92 12.76 42.92 4.63 39.97 4.63 39.97 5.22 39.96 5.53 39.93 5.79 39.88 6.04 39.82 6.26 39.73 6.46 39.63 6.63 39.57 6.72 39.49 6.78 39.41 6.86 39.34 6.92 39.15 7.04 38.96 7.13 38.72 7.21 38.46 7.27 38.19 7.31 37.88 7.34 37.52 7.35 37.16 7.35 35.65 7.35 35.65 2.68 39.58 2.68"/><polygon class="cls-1" points="92.78 3.63 92.81 3.51 92.82 3.41 92.87 3.3 92.92 3.21 92.97 3.12 93.05 3.04 93.14 2.97 93.23 2.91 93.34 2.85 93.44 2.8 93.58 2.76 93.7 2.73 93.86 2.7 94 2.68 94.17 2.68 96.38 2.68 96.38 0 82.92 0 82.92 2.68 85.13 2.68 85.29 2.68 85.44 2.7 85.6 2.73 85.74 2.76 85.85 2.8 85.96 2.85 86.07 2.91 86.16 2.97 86.25 3.04 86.32 3.12 86.39 3.21 86.43 3.3 86.47 3.41 86.5 3.51 86.52 3.63 86.52 3.75 86.52 14.09 86.52 14.23 86.5 14.33 86.47 14.44 86.43 14.54 86.39 14.64 86.32 14.72 86.25 14.81 86.16 14.89 86.07 14.95 85.96 15.01 85.85 15.06 85.74 15.1 85.6 15.13 85.44 15.15 85.29 15.16 85.13 15.16 82.97 15.16 82.97 17.84 104.93 17.84 104.93 10.5 101.61 10.5 101.6 11.03 101.57 11.53 101.56 11.77 101.52 12.01 101.48 12.23 101.45 12.45 101.39 12.67 101.33 12.86 101.25 13.06 101.18 13.26 101.09 13.44 100.98 13.61 100.87 13.77 100.74 13.92 100.6 14.07 100.45 14.21 100.28 14.33 100.1 14.45 99.92 14.57 99.71 14.68 99.48 14.76 99.24 14.84 98.98 14.92 98.71 14.98 98.41 15.04 98.1 15.09 97.77 15.12 97.42 15.15 97.05 15.16 96.67 15.16 92.78 15.16 92.78 3.75 92.78 3.63"/><path class="cls-1" d="M25.89,40.91V47.7h-.48V40.91Z" transform="translate(-25.41 -18.23)"/><path class="cls-1" d="M29.05,47.7V40.91h.46l2.63,4a20.6,20.6,0,0,1,1.28,2.13h0c-.07-.92-.08-1.69-.08-2.75V40.91h.47V47.7h-.45l-2.59-4a23.46,23.46,0,0,1-1.31-2.2h0c.05.84.06,1.57.06,2.7V47.7Z" transform="translate(-25.41 -18.23)"/><path class="cls-1" d="M38.27,41.31H36.05v-.4H41v.4H38.75V47.7h-.48Z" transform="translate(-25.41 -18.23)"/><path class="cls-1" d="M46.37,44.32H43.66v3h3v.41H43.18V40.91h3.35v.4H43.66v2.61h2.71Z" transform="translate(-25.41 -18.23)"/><path class="cls-1" d="M49.38,40.91h.48v6.38h3v.41H49.38Z" transform="translate(-25.41 -18.23)"/><path class="cls-1" d="M55.41,40.91h.48v6.38h3v.41h-3.5Z" transform="translate(-25.41 -18.23)"/><path class="cls-1" d="M61.91,40.91V47.7h-.48V40.91Z" transform="translate(-25.41 -18.23)"/><path class="cls-1" d="M69.93,47.4a5.36,5.36,0,0,1-2,.37,3.27,3.27,0,0,1-2.4-.89,3.56,3.56,0,0,1-.94-2.56,3.33,3.33,0,0,1,3.55-3.48,3.92,3.92,0,0,1,1.58.3l-.16.39a3.25,3.25,0,0,0-1.45-.29,2.83,2.83,0,0,0-3,3.06A2.76,2.76,0,0,0,68,47.36a3.13,3.13,0,0,0,1.42-.24v-2.4H67.88v-.39h2.05Z" transform="translate(-25.41 -18.23)"/><path class="cls-1" d="M76,44.32H73.33v3h3v.41H72.84V40.91H76.2v.4H73.33v2.61H76Z" transform="translate(-25.41 -18.23)"/><path class="cls-1" d="M79.06,47.7V40.91h.45l2.64,4a22.55,22.55,0,0,1,1.28,2.13h0c-.07-.92-.08-1.69-.08-2.75V40.91h.46V47.7h-.44l-2.59-4a23.67,23.67,0,0,1-1.32-2.2h0c.05.84.06,1.57.06,2.7V47.7Z" transform="translate(-25.41 -18.23)"/><path class="cls-1" d="M88.28,41.31H86.06v-.4H91v.4H88.76V47.7h-.48Z" transform="translate(-25.41 -18.23)"/><path class="cls-1" d="M97.76,41.31H95.54v-.4h4.91v.4H98.24V47.7h-.48Z" transform="translate(-25.41 -18.23)"/><path class="cls-1" d="M102.65,41a7.72,7.72,0,0,1,1.47-.14,2.47,2.47,0,0,1,1.83.56,1.68,1.68,0,0,1,.48,1.21,1.8,1.8,0,0,1-1.33,1.77v0a1.76,1.76,0,0,1,1.05,1.44,9.36,9.36,0,0,0,.5,1.84h-.49a8.37,8.37,0,0,1-.44-1.66c-.21-1-.63-1.42-1.53-1.46h-1V47.7h-.49Zm.49,3.19h1.07c1.05,0,1.73-.58,1.73-1.48s-.76-1.46-1.83-1.46a4.53,4.53,0,0,0-1,.09Z" transform="translate(-25.41 -18.23)"/><path class="cls-1" d="M110.07,45.32l-.84,2.38h-.49l2.45-6.79h.47l2.44,6.79h-.49l-.86-2.38Zm2.53-.4-.82-2.27c-.16-.47-.25-.81-.36-1.2h0c-.1.39-.21.75-.35,1.18l-.83,2.29Z" transform="translate(-25.41 -18.23)"/><path class="cls-1" d="M116.65,40.91H120v.4h-2.87V44h2.64v.4h-2.64V47.7h-.49Z" transform="translate(-25.41 -18.23)"/><path class="cls-1" d="M122.82,40.91h3.35v.4H123.3V44h2.64v.4H123.3V47.7h-.48Z" transform="translate(-25.41 -18.23)"/><path class="cls-1" d="M129.47,40.91V47.7H129V40.91Z" transform="translate(-25.41 -18.23)"/><path class="cls-1" d="M137.21,47.45a4.34,4.34,0,0,1-1.83.35,3.13,3.13,0,0,1-3.21-3.46,3.31,3.31,0,0,1,3.44-3.53,3.56,3.56,0,0,1,1.57.29l-.15.4a3.22,3.22,0,0,0-1.41-.29,2.82,2.82,0,0,0-3,3.14,2.73,2.73,0,0,0,2.87,3,3.69,3.69,0,0,0,1.53-.31Z" transform="translate(-25.41 -18.23)"/><path class="cls-1" d="M143.36,47a2.69,2.69,0,0,0,1.48.44c1,0,1.64-.57,1.64-1.41s-.39-1.21-1.38-1.58-1.74-.95-1.74-1.87a1.79,1.79,0,0,1,2-1.72,2.63,2.63,0,0,1,1.35.31l-.18.41a2.16,2.16,0,0,0-1.2-.32,1.29,1.29,0,0,0-1.47,1.24c0,.74.44,1.13,1.41,1.51,1.12.45,1.71,1,1.71,2a1.9,1.9,0,0,1-2.15,1.87,3.07,3.07,0,0,1-1.62-.46Z" transform="translate(-25.41 -18.23)"/><path class="cls-1" d="M151.25,47.7V44.76l-2.16-3.85h.54l1.11,2c.29.54.54,1,.78,1.46h0c.2-.45.48-.92.78-1.47l1.16-2H154l-2.29,3.86V47.7Z" transform="translate(-25.41 -18.23)"/><path class="cls-1" d="M156.08,47a2.72,2.72,0,0,0,1.48.44c1,0,1.64-.57,1.64-1.41s-.39-1.21-1.38-1.58-1.74-.95-1.74-1.87a1.79,1.79,0,0,1,2-1.72,2.69,2.69,0,0,1,1.35.31l-.19.41a2.15,2.15,0,0,0-1.19-.32,1.29,1.29,0,0,0-1.47,1.24c0,.74.43,1.13,1.41,1.51s1.71,1,1.71,2a1.91,1.91,0,0,1-2.16,1.87,3.07,3.07,0,0,1-1.62-.46Z" transform="translate(-25.41 -18.23)"/><path class="cls-1" d="M163.77,41.31h-2.22v-.4h4.92v.4h-2.22V47.7h-.48Z" transform="translate(-25.41 -18.23)"/><path class="cls-1" d="M171.86,44.32h-2.71v3h3v.41h-3.52V40.91H172v.4h-2.87v2.61h2.71Z" transform="translate(-25.41 -18.23)"/><path class="cls-1" d="M180.6,44.48c-.06-1-.14-2.26-.14-3h0c-.25.74-.52,1.52-.92,2.54l-1.43,3.69h-.33l-1.34-3.61c-.38-1.06-.67-1.87-.87-2.62h0c0,.8-.08,2-.16,3.1l-.21,3.13h-.47l.49-6.79h.56l1.46,3.92c.32.85.55,1.54.74,2.19h0c.17-.62.41-1.28.76-2.19l1.52-3.92h.57l.45,6.79h-.47Z" transform="translate(-25.41 -18.23)"/><path class="cls-1" d="M184,47a2.67,2.67,0,0,0,1.48.44c1,0,1.64-.57,1.64-1.41s-.39-1.21-1.38-1.58S184,43.45,184,42.53a1.78,1.78,0,0,1,2-1.72,2.66,2.66,0,0,1,1.35.31l-.18.41a2.19,2.19,0,0,0-1.2-.32,1.29,1.29,0,0,0-1.47,1.24c0,.74.43,1.13,1.41,1.51s1.71,1,1.71,2a1.9,1.9,0,0,1-2.15,1.87,3,3,0,0,1-1.62-.46Z" transform="translate(-25.41 -18.23)"/></svg>